# xmcd
#
# Track frame offsets:
#	150
#	44711
#	60092
#	64880
#	99700
#	142610
#	190611
#	232271
#	259574
#
# Disc length: 4070 seconds
#
# Revision: 1
# Processed by: cddbd v1.5.2PL0 Copyright (c) Steve Scherf et al.
# Submitted via: audiograbber 1.83.01
#
DISCID=770fe409
DTITLE=Grateful Dead - 80-10-26 Radio City Music Hall, New York NY
DYEAR=1900
DGENRE=
TTITLE0=Let It Grow
TTITLE1=Don't Ease Me In
TTITLE2=Jam
TTITLE3=Samson and Delilah
TTITLE4=Althea
TTITLE5=Estimated Prophet
TTITLE6=He's Gone
TTITLE7=Jam
TTITLE8=Drums
EXTD=
EXTT0=
EXTT1=
EXTT2=
EXTT3=
EXTT4=
EXTT5=
EXTT6=
EXTT7=
EXTT8=
PLAYORDER=
